<svg width="19" height="16" viewBox="0 0 19 16" fill="none" xmlns="http://www.w3.org/2000/svg">
<path d="M1.36742 2.93878H18.347C18.7077 2.93878 19.0001 2.64641 19.0001 2.28571V0.653061C19.0001 0.292367 18.7077 0 18.347 0H1.36742C1.00672 0 0.714355 0.292367 0.714355 0.653061V2.28571C0.714355 2.64641 1.00672 2.93878 1.36742 2.93878ZM1.36742 9.46939H18.347C18.7077 9.46939 19.0001 9.17702 19.0001 8.81633V7.18367C19.0001 6.82298 18.7077 6.53061 18.347 6.53061H1.36742C1.00672 6.53061 0.714355 6.82298 0.714355 7.18367V8.81633C0.714355 9.17702 1.00672 9.46939 1.36742 9.46939ZM1.36742 16H18.347C18.7077 16 19.0001 15.7076 19.0001 15.3469V13.7143C19.0001 13.3536 18.7077 13.0612 18.347 13.0612H1.36742C1.00672 13.0612 0.714355 13.3536 0.714355 13.7143V15.3469C0.714355 15.7076 1.00672 16 1.36742 16Z" fill="#4A4A4A"/>
</svg>
