<svg width="31" height="40" viewBox="0 0 31 40" fill="none" xmlns="http://www.w3.org/2000/svg">
<path d="M17.4133 39.1012C21.5547 34.0726 31 21.8848 31 15.0389C31 6.73618 24.0573 0 15.5 0C6.94271 0 0 6.73618 0 15.0389C0 21.8848 9.44531 34.0726 13.5867 39.1012C14.5797 40.2996 16.4203 40.2996 17.4133 39.1012ZM15.5 10.0259C16.8703 10.0259 18.1844 10.5541 19.1534 11.4942C20.1223 12.4343 20.6667 13.7094 20.6667 15.0389C20.6667 16.3684 20.1223 17.6435 19.1534 18.5836C18.1844 19.5237 16.8703 20.0519 15.5 20.0519C14.1297 20.0519 12.8156 19.5237 11.8466 18.5836C10.8777 17.6435 10.3333 16.3684 10.3333 15.0389C10.3333 13.7094 10.8777 12.4343 11.8466 11.4942C12.8156 10.5541 14.1297 10.0259 15.5 10.0259Z" fill="#84BF04"/>
</svg>
