<svg width="96" height="96" viewBox="0 0 96 96" fill="none" xmlns="http://www.w3.org/2000/svg">
<g clip-path="url(#clip0_247_18864)">
<path d="M48 96C74.5097 96 96 74.5097 96 48C96 21.4903 74.5097 0 48 0C21.4903 0 0 21.4903 0 48C0 74.5097 21.4903 96 48 96Z" fill="#84BF04"/>
<path d="M64.5328 73.3867C63.6614 73.3867 62.4709 72.9573 61.7528 70.9158C61.3957 69.9 61.1753 68.6323 60.9423 67.2898C60.6003 65.3179 60.0266 62.0187 58.9881 62.0174C57.9546 62.0187 57.3821 65.3191 57.0389 67.2911C56.8059 68.6335 56.5855 69.9013 56.2284 70.917C55.509 72.9599 54.3198 73.3879 53.4484 73.3879C52.5771 73.3879 51.7741 72.9447 51.0383 72.0695C48.9448 69.5796 47.3338 63.2826 48.2748 57.8772C48.2963 57.7367 48.209 57.3998 48.1216 57.287C47.1527 56.0497 44.854 52.6897 44.4652 48.2671C44.1245 44.3967 45.4049 41.1735 47.9797 39.4245C50.3177 37.8363 53.356 37.7122 56.1081 39.0914L56.1651 39.1192C56.4817 39.2788 57.0123 39.5448 57.5848 39.5967C58.4029 39.6702 59.0058 40.3921 58.9323 41.2102C58.8589 42.0284 58.137 42.6312 57.3188 42.5578C56.1828 42.4552 55.2684 41.9967 54.8289 41.7751L54.777 41.7485C53.0001 40.8581 51.0852 40.9075 49.6515 41.8815C47.9949 43.0074 47.1844 45.2389 47.4288 48.0049C47.7568 51.736 49.8364 54.6489 50.4658 55.4532C51.0687 56.2245 51.3726 57.4302 51.2055 58.3864C50.7837 60.8117 50.9458 63.7246 51.6513 66.3792C52.2047 68.4638 52.9038 69.6797 53.3357 70.185C53.6511 69.4365 53.9322 67.8192 54.1121 66.7807C54.3958 65.1469 54.6896 63.4561 55.2494 62.0693C56.2588 59.5718 57.8406 59.0449 58.9893 59.0424C60.1431 59.0449 61.7249 59.5718 62.7343 62.0693C63.2954 63.4561 63.588 65.1456 63.8716 66.7807C64.054 67.8293 64.339 69.472 64.6581 70.2091C65.0862 69.7379 65.7929 68.5601 66.3451 66.5058C67.0531 63.8715 67.2013 60.8864 66.7554 58.3167C66.5908 57.3618 66.891 56.1561 67.4875 55.3848C68.1283 54.5578 70.2408 51.5853 70.5562 48.0037C70.7677 45.5961 70.1889 43.6419 68.9237 42.4982C67.9333 41.6028 66.5959 41.2609 65.1597 41.5357C64.068 41.7447 63.2865 42.4577 62.3823 43.2835C60.7282 44.7944 58.6702 46.6739 54.3552 45.6873C53.5548 45.5036 53.0546 44.707 53.2369 43.9066C53.4206 43.1061 54.2172 42.6059 55.0176 42.7883C57.8153 43.4278 58.8893 42.4463 60.3761 41.0874C61.4577 40.0995 62.6824 38.9799 64.6011 38.6139C66.9404 38.1668 69.2428 38.7786 70.9171 40.2907C72.8891 42.074 73.8136 44.9046 73.5172 48.262C73.1411 52.5314 70.8183 55.937 69.8368 57.2022C69.7494 57.3162 69.6608 57.6619 69.6836 57.8063C70.6651 63.4574 69.0579 69.5897 67.0062 72.0303C66.0652 73.1498 65.1407 73.3841 64.5328 73.3841V73.3867ZM44.5197 75.3713C45.6544 74.9039 46.75 74.4151 47.7783 73.9186C48.518 73.5615 48.827 72.6724 48.4699 71.9327C48.1127 71.1931 47.2236 70.8841 46.484 71.2412C45.6798 71.6301 44.83 72.0138 43.9523 72.3862C31.3 67.0226 25.4007 59.3375 25.4007 48.2392V32.403C25.4007 31.8686 25.4159 31.3227 25.4463 30.7667C32.1828 30.2639 38.533 27.9019 43.9523 23.8796C49.3741 27.9007 55.7256 30.2652 62.4595 30.7667C62.4899 31.3227 62.5051 31.8698 62.5051 32.403V37.084C62.5051 37.9047 63.1713 38.5708 63.992 38.5708C64.8126 38.5708 65.4788 37.9047 65.4788 37.084V32.403C65.4788 31.3759 65.4269 30.3045 65.3256 29.2178C65.2559 28.4757 64.6467 27.8994 63.902 27.8715C56.9224 27.6068 50.3443 25.1764 44.8755 20.8425C44.3348 20.4132 43.5685 20.4132 43.0277 20.8425C37.5641 25.1764 30.9859 27.6068 24.005 27.8715C23.2604 27.8994 22.6512 28.4757 22.5815 29.2178C22.4789 30.3019 22.427 31.3734 22.427 32.4043V48.2405C22.427 54.9466 24.4344 60.6977 28.3934 65.3343C31.818 69.344 36.7219 72.6293 43.3849 75.3738C43.566 75.4485 43.7585 75.4865 43.951 75.4865C44.1435 75.4865 44.336 75.4485 44.5171 75.3738L44.5197 75.3713ZM41.3902 63.7677C41.8182 63.0673 41.5991 62.1516 40.8988 61.7236C35.5023 58.4206 32.9895 54.1107 32.9895 48.1607V37.5741C32.9895 37.3639 32.9933 37.1511 32.9997 36.9358C36.2204 36.6395 39.2954 35.7187 42.1564 34.1888C42.8808 33.8025 43.1544 32.9008 42.7668 32.1776C42.3806 31.4532 41.4788 31.1796 40.7557 31.5672C37.8997 33.0933 34.8006 33.9292 31.5432 34.052C30.7985 34.0799 30.1893 34.6561 30.1197 35.3983C30.05 36.1354 30.0145 36.8674 30.0145 37.5741V48.1607C30.0145 55.1517 33.0668 60.4178 39.3448 64.2603C39.5867 64.4085 39.8552 64.4795 40.1199 64.4795C40.6201 64.4795 41.109 64.2262 41.3889 63.7689L41.3902 63.7677Z" fill="white"/>
</g>
<defs>
<clipPath id="clip0_247_18864">
<rect width="96" height="96" fill="white"/>
</clipPath>
</defs>
</svg>
