<svg width="40" height="41" viewBox="0 0 40 41" fill="none" xmlns="http://www.w3.org/2000/svg">
<path d="M12.8822 2.42355C12.2807 0.970491 10.6948 0.197087 9.17928 0.611132L2.30459 2.48605C0.945271 2.86103 0 4.09535 0 5.50154C0 24.8288 15.6712 40.5 34.9985 40.5C36.4046 40.5 37.639 39.5547 38.014 38.1954L39.8889 31.3207C40.3029 29.8052 39.5295 28.2193 38.0764 27.6178L30.5768 24.4929C29.3034 23.9617 27.8269 24.3288 26.9598 25.3991L23.8036 29.2505C18.3039 26.649 13.851 22.1961 11.2495 16.6964L15.1009 13.5481C16.1712 12.6731 16.5383 11.2044 16.0071 9.93103L12.8822 2.43136V2.42355Z" fill="#84BF04"/>
</svg>
