<svg width="337" height="134" viewBox="0 0 337 134" fill="none" xmlns="http://www.w3.org/2000/svg">
<path d="M23.5185 70.2166C7.39624 63.315 -0.0843317 53.3789 0.000716861 38.9836L0.107952 20.4399C0.115347 19.2483 0.181907 18.0086 0.307631 16.7578C0.370493 16.1361 0.880784 15.6588 1.50571 15.6403C9.7813 15.3738 17.5947 12.5392 24.1027 7.43604C24.5576 7.08079 25.1973 7.08449 25.6484 7.44345C32.101 12.6243 39.8811 15.5514 48.1493 15.9141C48.7705 15.94 49.2771 16.4248 49.3326 17.0465C49.4435 18.301 49.4953 19.5407 49.4879 20.7323L49.4731 23.5262C48.6411 23.4744 47.8128 23.4596 46.9882 23.4818L47.003 20.7212C47.0067 19.9477 46.9845 19.1484 46.9364 18.338C38.8716 17.7718 31.2801 14.9001 24.8608 9.98575C18.3897 14.8224 10.7649 17.6053 2.68899 18.0752C2.62983 18.8857 2.59655 19.6813 2.59285 20.4547L2.48561 38.9984C2.41166 51.6803 8.80509 60.6506 22.546 67.06C22.8455 68.1443 23.1709 69.1989 23.5185 70.2166ZM39.8626 23.0118C35.3624 22.8416 28.6325 21.6574 25.6114 20.044C25.5375 20.007 25.4635 19.9737 25.3859 19.9514C25.3452 19.9403 25.3045 19.9329 25.2638 19.9255C25.2269 19.9181 25.1899 19.907 25.1492 19.9033C25.1011 19.8996 25.0568 19.9033 25.0124 19.9033C24.9791 19.9033 24.9458 19.9033 24.9088 19.9033C24.8571 19.907 24.8053 19.9218 24.7535 19.9329C24.7277 19.9403 24.6981 19.9403 24.6722 19.9477C24.5945 19.97 24.5169 20.0033 24.4429 20.0403C21.4219 21.6537 14.6956 22.8379 10.1917 23.0081C9.56683 23.0303 9.06023 23.5151 9.00107 24.1368C8.91972 24.9843 8.88274 25.828 8.88274 26.6384V39.0354C8.88274 47.0324 12.3771 53.0606 19.5619 57.4644C19.7653 57.5902 19.9871 57.6494 20.209 57.6494C20.4309 57.6494 20.6638 57.5791 20.8598 57.457C20.8043 56.7205 20.7637 55.9915 20.7415 55.2699C14.348 51.314 11.3639 46.1516 11.3639 39.0391V26.6421C11.3639 26.2499 11.375 25.8465 11.3972 25.4394C15.4167 25.1656 21.4958 24.1775 25.0272 22.5308C28.3219 24.0665 33.8389 25.0324 37.8251 25.3765C38.8827 24.9472 39.9624 24.592 41.0644 24.307C41.0607 24.2515 41.057 24.196 41.0533 24.1405C40.9941 23.5188 40.4838 23.0377 39.8626 23.0155V23.0118ZM116.055 54.5964C116.846 54.2633 117.216 53.3493 116.88 52.5574C114.358 46.592 112.819 40.5823 112.302 34.7057C111.229 22.5234 114.48 13.2238 121.701 7.8135C128.838 2.46245 139.103 1.61871 149.154 5.55614L149.42 5.65976C151.727 6.57011 156.009 8.26128 162.122 8.13176C162.98 8.11325 163.66 7.40274 163.642 6.5442C163.623 5.68566 162.913 5.00846 162.055 5.02326C156.579 5.13798 152.663 3.59853 150.559 2.7696L150.285 2.66228C139.225 -1.66741 127.84 -0.671953 119.834 5.32671C111.825 11.3291 108.046 21.8647 109.203 34.9833C109.747 41.1854 111.366 47.5098 114.014 53.7749C114.265 54.367 114.842 54.7259 115.445 54.7259C115.648 54.7259 115.852 54.6852 116.048 54.6038L116.055 54.5964ZM202.768 108.584C202.952 107.744 202.424 106.915 201.584 106.73C200.745 106.545 199.917 107.078 199.732 107.915C196.57 122.299 190.794 130.892 187.037 130.892C183.084 130.892 181.435 121.388 179.841 112.2C177.564 99.0812 174.983 84.2122 164.289 84.1937C153.598 84.2122 151.021 99.0812 148.743 112.2C147.149 121.388 145.5 130.892 141.547 130.892C139.517 130.892 136.851 128.09 134.411 123.402C134.015 122.639 133.076 122.343 132.314 122.739C131.552 123.135 131.256 124.075 131.652 124.837C134.773 130.832 138.194 134 141.547 134C148.115 134 149.823 124.142 151.805 112.729C153.872 100.817 156.216 87.317 164.289 87.3022C172.368 87.317 174.713 100.817 176.78 112.729C178.762 124.142 180.47 134 187.037 134C194.045 134 199.983 121.233 202.764 108.581L202.768 108.584ZM175.056 9.53428C179.128 6.48129 182.644 3.84277 188.601 3.29878C198.988 2.35513 207.66 6.23705 212.408 13.9565C212.859 14.6892 213.816 14.9149 214.545 14.4672C215.277 14.0157 215.503 13.0572 215.055 12.3282C209.745 3.69475 199.75 -0.842181 188.32 0.201386C181.487 0.826786 177.456 3.84647 173.193 7.04748C167.373 11.4105 161.356 15.9252 146.687 15.3812C145.829 15.3479 145.108 16.0177 145.075 16.8763C145.042 17.7348 145.711 18.4564 146.569 18.4897C147.408 18.5193 148.226 18.5341 149.017 18.5341C163.057 18.5341 169.414 13.7678 175.056 9.53428ZM232.194 56.5651C234.786 52.7239 236.155 48.2351 236.155 43.576C236.155 30.7646 225.738 20.34 212.936 20.34C200.135 20.34 189.718 30.7646 189.718 43.576C189.718 46.4921 190.247 49.3305 191.293 52.0134C191.604 52.8127 192.506 53.2087 193.305 52.8978C194.104 52.587 194.499 51.684 194.189 50.8847C193.283 48.5644 192.824 46.1072 192.824 43.5797C192.824 32.4817 201.843 23.4559 212.933 23.4559C224.022 23.4559 233.045 32.4854 233.045 43.5797C233.045 47.6134 231.858 51.5027 229.617 54.8258C229.136 55.5363 229.325 56.5059 230.035 56.987C230.301 57.1683 230.604 57.2534 230.904 57.2534C231.403 57.2534 231.891 57.0129 232.194 56.5688V56.5651ZM203.64 81.607C204.461 81.3554 204.92 80.482 204.668 79.6605C204.413 78.839 203.544 78.3801 202.723 78.6317C201.148 79.1165 199.506 79.3645 197.846 79.3645C188.72 79.3645 181.291 71.9337 181.291 62.7969C181.291 56.0544 185.318 50.0373 191.549 47.4728C192.344 47.1471 192.721 46.2368 192.395 45.4411C192.07 44.6455 191.16 44.268 190.365 44.5937C182.966 47.643 178.185 54.7888 178.185 62.7969C178.185 73.647 187.004 82.4767 197.846 82.4767C199.82 82.4767 201.769 82.1843 203.64 81.607ZM221.719 86.1069C221.719 85.5963 221.689 85.0819 221.634 84.5675C222.739 84.7599 223.863 84.8561 224.995 84.8561C235.792 84.8561 244.574 76.0672 244.574 65.2615C244.574 58.2378 240.784 51.7099 234.679 48.2277C233.932 47.8021 232.986 48.0611 232.56 48.8087C232.135 49.5562 232.394 50.5035 233.141 50.9291C238.277 53.86 241.468 59.3517 241.468 65.2615C241.468 74.3502 234.08 81.7476 224.995 81.7476C223.331 81.7476 221.685 81.4997 220.11 81.0112C219.566 80.841 218.971 80.9853 218.564 81.385C218.158 81.7846 217.999 82.373 218.154 82.9244C218.453 83.9828 218.609 85.056 218.609 86.1143C218.609 92.5349 213.387 97.7601 206.972 97.7601C200.556 97.7601 195.335 92.5349 195.335 86.1143C195.335 84.66 195.598 83.2464 196.119 81.9031C196.43 81.1037 196.03 80.2008 195.231 79.8899C194.429 79.5791 193.531 79.9788 193.22 80.7781C192.562 82.4804 192.225 84.2751 192.225 86.1143C192.225 94.2519 198.84 100.869 206.972 100.869C215.103 100.869 221.715 94.2482 221.715 86.1143L221.719 86.1069ZM132.761 116.074C137.177 112.259 139.843 106.952 140.268 101.131C140.834 93.4378 137.239 85.933 130.89 81.5441C130.184 81.0556 129.215 81.2333 128.727 81.9401C128.239 82.6469 128.417 83.6164 129.123 84.1049C134.57 87.8684 137.654 94.3075 137.169 100.906C136.803 105.898 134.518 110.449 130.731 113.721C126.945 116.992 122.112 118.591 117.124 118.228C106.825 117.473 99.0601 108.473 99.8181 98.1672C99.9143 96.8387 100.151 95.5249 100.521 94.2593C100.761 93.4341 100.288 92.5719 99.4631 92.3313C98.6422 92.0908 97.777 92.5645 97.5366 93.3897C97.1077 94.8625 96.8303 96.3946 96.7194 97.9414C95.8393 109.957 104.891 120.452 116.898 121.333C117.445 121.374 117.985 121.392 118.529 121.392C123.761 121.392 128.764 119.534 132.765 116.078L132.761 116.074ZM136.008 86.6102C138.512 83.7127 139.983 80.1601 140.264 76.33C140.612 71.6117 139.099 67.0452 136.012 63.463C132.924 59.8845 128.627 57.7234 123.916 57.3755C114.188 56.6576 105.694 63.9996 104.98 73.7359C104.884 75.0422 104.932 76.3633 105.124 77.6585C105.25 78.5096 106.041 79.0943 106.888 78.9685C107.739 78.8427 108.323 78.0507 108.197 77.2033C108.038 76.1338 107.998 75.0422 108.075 73.9653C108.663 65.9387 115.663 59.8845 123.683 60.4803C127.57 60.7653 131.109 62.5453 133.653 65.4983C136.197 68.4477 137.443 72.2149 137.158 76.1042C136.925 79.2608 135.712 82.1917 133.653 84.5749C133.091 85.2262 133.161 86.2069 133.812 86.7693C134.104 87.0247 134.466 87.1468 134.829 87.1468C135.265 87.1468 135.698 86.9655 136.004 86.6102H136.008ZM104.917 93.8967C105.705 93.5525 106.064 92.6348 105.72 91.8503C105.376 91.0657 104.459 90.7031 103.675 91.0472C102.103 91.7318 100.436 92.0168 98.7162 91.891C92.9477 91.4691 88.5991 86.4289 89.0243 80.656C89.2314 77.8583 90.5108 75.3123 92.6297 73.4768C94.7485 71.645 97.4515 70.7495 100.251 70.953C102.04 71.0825 103.771 71.6709 105.258 72.6553C105.975 73.129 106.936 72.9328 107.413 72.2186C107.887 71.5007 107.691 70.5385 106.977 70.0612C105.05 68.7808 102.802 68.0184 100.48 67.8482C96.8562 67.5818 93.3507 68.7438 90.5996 71.1195C87.8522 73.4953 86.1919 76.7999 85.9256 80.4228C85.3784 87.9054 91.0138 94.437 98.4906 94.9847C98.8197 95.0106 99.1525 95.0217 99.4853 95.0217C101.353 95.0217 103.213 94.6368 104.921 93.8893L104.917 93.8967ZM234.528 111.919C234.528 107.074 230.589 103.133 225.745 103.133C220.901 103.133 216.967 107.074 216.967 111.919C216.967 116.763 220.905 120.704 225.745 120.704C230.586 120.704 234.528 116.763 234.528 111.919ZM231.418 111.919C231.418 115.049 228.874 117.592 225.745 117.592C222.617 117.592 220.077 115.046 220.077 111.919C220.077 108.792 222.621 106.246 225.745 106.246C228.87 106.246 231.418 108.792 231.418 111.919ZM104.677 49.5784C104.677 44.2865 100.376 39.9828 95.0887 39.9828C89.8009 39.9828 85.5004 44.2865 85.5004 49.5784C85.5004 54.8702 89.8009 59.1777 95.0887 59.1777C100.376 59.1777 104.677 54.8739 104.677 49.5784ZM101.567 49.5784C101.567 53.1569 98.6607 56.0655 95.085 56.0655C91.5093 56.0655 88.6065 53.1569 88.6065 49.5784C88.6065 45.9999 91.513 43.095 95.085 43.095C98.657 43.095 101.567 46.0036 101.567 49.5784ZM257.065 34.8315L257.232 34.9166C258.434 35.5198 260.933 36.778 263.903 37.0445C264.816 37.1259 265.626 36.4524 265.707 35.5346C265.788 34.6206 265.115 33.8102 264.198 33.7288C261.858 33.5178 259.82 32.4928 258.726 31.9414L258.552 31.8563C252.066 28.5997 245.037 28.3629 239.154 31.0717C239.631 32.0709 240.056 33.0997 240.418 34.158C245.41 31.8118 251.452 32.0154 257.062 34.8315H257.065ZM88.8912 127.598C87.8374 128.849 86.7909 129.57 86.0107 129.57C83.4259 129.57 82.1058 121.947 81.0409 115.823C79.2844 105.702 77.295 94.2297 68.7865 94.2149C60.2853 94.2297 58.2922 105.702 56.5358 115.823C55.4709 121.947 54.1507 129.57 51.566 129.57C50.856 129.57 49.8761 128.893 48.8851 127.709C44.0448 121.951 38.964 104.325 41.6782 88.7011C42.0591 86.5288 41.338 83.6756 39.9624 81.9142C37.8806 79.2534 30.9991 69.6023 29.9082 57.1868C29.054 47.4876 32.0418 39.5609 38.0988 35.4384C43.4494 31.797 50.5195 31.5676 57.0091 34.8241L57.1755 34.9092C58.3773 35.5124 60.877 36.7706 63.8463 37.0371C64.7559 37.1185 65.5694 36.445 65.6508 35.5272C65.7321 34.6132 65.0592 33.8028 64.1421 33.7214C61.8014 33.5104 59.764 32.4854 58.6694 31.934L58.4956 31.8489C50.9152 28.0446 42.5915 28.3592 36.2277 32.6852C29.1428 37.5034 25.6299 46.5402 26.5913 57.4755C27.3826 66.4679 31.3984 76.367 37.337 83.9606C38.1283 84.9746 38.6128 86.8804 38.3946 88.1238C35.6545 103.885 40.3803 122.761 46.33 129.844C48.0273 131.865 49.7874 132.89 51.5586 132.89C56.9389 132.89 58.2664 125.241 59.8046 116.385C61.3392 107.556 63.0735 97.5455 68.7791 97.5344C74.4884 97.5455 76.2264 107.552 77.7573 116.381C79.2955 125.241 80.623 132.89 86.0033 132.89C87.8411 132.89 89.6641 131.828 91.4279 129.733C93.7205 127.006 95.8097 122.658 97.3554 117.392C96.4273 116.293 95.5805 115.123 94.8298 113.891C93.3138 120.067 91.0692 124.993 88.8838 127.594L88.8912 127.598ZM255.838 43.6019C254.943 43.3984 254.052 43.9572 253.848 44.8527C253.645 45.7483 254.203 46.6401 255.098 46.8437C266.998 49.5673 272.515 44.5197 277.385 40.0679C278.964 38.6246 280.498 37.2258 282.203 36.1045C281.977 34.924 281.822 33.7177 281.737 32.4928C279.215 33.8842 277.155 35.7678 275.14 37.6107C270.459 41.8923 266.04 45.9333 255.834 43.5982L255.838 43.6019ZM310.531 61.0983C309.415 61.028 308.316 60.8985 307.233 60.7098C305.318 71.027 299.479 79.2312 297.578 81.6884C296.217 83.4536 295.504 86.3105 295.877 88.4864C298.773 105.172 293.71 121.918 288.94 127.594C287.886 128.845 286.84 129.567 286.06 129.567C283.475 129.567 282.155 121.943 281.09 115.819C279.333 105.698 277.344 94.226 268.835 94.2112C260.334 94.226 258.341 105.698 256.585 115.819C255.52 121.943 254.2 129.567 251.615 129.567C250.905 129.567 249.925 128.889 248.934 127.705C244.094 121.947 239.013 104.321 241.727 88.6974C241.942 87.4651 241.805 86.0144 241.394 84.6674C240.47 85.4519 239.49 86.1698 238.458 86.8174C238.514 87.2837 238.521 87.7389 238.455 88.1238C237.571 93.2047 237.467 98.6075 237.926 103.836C239.464 106.153 240.363 108.928 240.363 111.911C240.363 113.136 240.207 114.328 239.923 115.467C241.531 121.636 243.846 126.817 246.39 129.841C248.087 131.861 249.847 132.886 251.619 132.886C256.999 132.886 258.326 125.237 259.865 116.381C261.399 107.552 263.134 97.5418 268.839 97.5307C274.549 97.5418 276.286 107.548 277.817 116.378C279.356 125.237 280.683 132.886 286.063 132.886C287.901 132.886 289.724 131.824 291.488 129.73C297.438 122.65 302.064 104.647 299.157 87.9128C298.939 86.6583 299.423 84.7377 300.211 83.7201C305.403 77.0183 309.123 68.7919 310.535 61.0946L310.531 61.0983ZM103.327 34.6872C98.8715 30.957 92.8885 29.4805 86.7872 30.6499C81.6473 31.6305 78.3193 34.6761 75.1023 37.6181C70.4209 41.8997 66.0021 45.9407 55.7963 43.6056C54.9014 43.4021 54.0102 43.9609 53.8069 44.8564C53.6035 45.752 54.1618 46.6438 55.0567 46.8474C66.9561 49.571 72.4769 44.5234 77.3431 40.0716C80.3531 37.3183 83.1967 34.7205 87.4121 33.9138C90.0967 33.3994 92.7443 33.4919 95.1885 34.1395C98.254 34.158 101.109 35.0758 103.505 36.6411C103.464 36.2563 103.423 35.8714 103.39 35.4902C103.368 35.2201 103.349 34.9536 103.327 34.6835V34.6872ZM337 30.3353C337 16.7985 325.995 5.78928 312.473 5.78928C298.95 5.78928 287.945 16.8022 287.945 30.3353C287.945 43.8684 298.946 54.8813 312.473 54.8813C325.999 54.8813 337 43.8721 337 30.3353ZM334.781 30.3353C334.781 42.6435 324.772 52.661 312.473 52.661C300.174 52.661 290.164 42.6472 290.164 30.3353C290.164 18.0234 300.17 8.00964 312.473 8.00964C324.775 8.00964 334.781 18.0234 334.781 30.3353ZM318.282 43.8351V36.1452H325.966C326.58 36.1452 327.075 35.6494 327.075 35.0351V25.6282C327.075 25.0139 326.58 24.518 325.966 24.518H318.282V16.8281C318.282 16.2139 317.786 15.718 317.173 15.718H307.773C307.159 15.718 306.664 16.2139 306.664 16.8281V24.518H298.983C298.369 24.518 297.874 25.0139 297.874 25.6282V35.0351C297.874 35.6494 298.369 36.1452 298.983 36.1452H306.664V43.8351C306.664 44.4494 307.159 44.9453 307.773 44.9453H317.173C317.786 44.9453 318.282 44.4494 318.282 43.8351ZM308.882 35.0351C308.882 34.4208 308.387 33.9249 307.773 33.9249H300.093V26.7383H307.773C308.387 26.7383 308.882 26.2425 308.882 25.6282V17.9383H316.063V25.6282C316.063 26.2425 316.559 26.7383 317.173 26.7383H324.857V33.9249H317.173C316.559 33.9249 316.063 34.4208 316.063 35.0351V42.7249H308.882V35.0351Z" fill="#84BF04"/>
</svg>
