<svg width="96" height="96" viewBox="0 0 96 96" fill="none" xmlns="http://www.w3.org/2000/svg">
<path d="M48 96C74.5097 96 96 74.5097 96 48C96 21.4903 74.5097 0 48 0C21.4903 0 0 21.4903 0 48C0 74.5097 21.4903 96 48 96Z" fill="#84BF04"/>
<path d="M64.5328 73.3868C63.6614 73.3868 62.4709 72.9575 61.7528 70.9159C61.3957 69.9002 61.1753 68.6324 60.9423 67.2899C60.6003 65.318 60.0266 62.0188 58.9881 62.0175C57.9546 62.0188 57.3822 65.3193 57.0389 67.2912C56.8059 68.6337 56.5855 69.9014 56.2284 70.9172C55.509 72.96 54.3198 73.3881 53.4484 73.3881C52.5771 73.3881 51.7741 72.9448 51.0383 72.0697C48.9448 69.5797 47.3338 63.2827 48.2748 57.8774C48.2964 57.7368 48.209 57.3999 48.1216 57.2872C47.1527 56.0498 44.854 52.6898 44.4652 48.2672C44.1245 44.3968 45.405 41.1736 47.9797 39.4246C50.3177 37.8364 53.356 37.7123 56.1081 39.0915L56.1651 39.1194C56.4817 39.2789 57.0124 39.5449 57.5848 39.5968C58.403 39.6703 59.0058 40.3922 58.9324 41.2103C58.8589 42.0285 58.137 42.6313 57.3188 42.5579C56.1828 42.4553 55.2684 41.9968 54.8289 41.7752L54.777 41.7486C53.0001 40.8583 51.0852 40.9077 49.6515 41.8816C47.9949 43.0075 47.1844 45.2391 47.4288 48.0051C47.7568 51.7361 49.8364 54.6491 50.4659 55.4533C51.0687 56.2246 51.3727 57.4303 51.2055 58.3865C50.7837 60.8118 50.9459 63.7247 51.6513 66.3793C52.2048 68.464 52.9039 69.6798 53.3357 70.1851C53.6511 69.4366 53.9322 67.8193 54.1121 66.7808C54.3958 65.147 54.6896 63.4563 55.2494 62.0694C56.2588 59.5719 57.8406 59.0451 58.9893 59.0425C60.1431 59.0451 61.725 59.5719 62.7344 62.0694C63.2954 63.4563 63.588 65.1457 63.8717 66.7808C64.054 67.8294 64.339 69.4721 64.6582 70.2092C65.0862 69.738 65.7929 68.5602 66.3451 66.506C67.0531 63.8717 67.2013 60.8865 66.7555 58.3168C66.5908 57.3619 66.891 56.1562 67.4875 55.3849C68.1283 54.5579 70.2408 51.5854 70.5562 48.0038C70.7677 45.5962 70.1889 43.642 68.9237 42.4984C67.9333 41.603 66.5959 41.261 65.1597 41.5358C64.068 41.7448 63.2865 42.4578 62.3823 43.2836C60.7282 44.7945 58.6702 46.674 54.3553 45.6874C53.5548 45.5037 53.0546 44.7071 53.2369 43.9067C53.4206 43.1063 54.2172 42.606 55.0176 42.7884C57.8153 43.428 58.8893 42.4464 60.3762 41.0875C61.4577 40.0996 62.6824 38.9801 64.6012 38.614C66.9404 38.167 69.2429 38.7787 70.9172 40.2909C72.8891 42.0741 73.8136 44.9047 73.5173 48.2622C73.1411 52.5315 70.8184 55.9371 69.8368 57.2023C69.7494 57.3163 69.6608 57.6621 69.6836 57.8064C70.6651 63.4575 69.0579 69.5899 67.0062 72.0304C66.0652 73.15 65.1407 73.3843 64.5328 73.3843V73.3868ZM44.5197 75.3714C45.6545 74.9041 46.75 74.4152 47.7784 73.9187C48.518 73.5616 48.827 72.6725 48.4699 71.9329C48.1127 71.1932 47.2236 70.8842 46.484 71.2414C45.6798 71.6302 44.83 72.0139 43.9523 72.3863C31.3001 67.0227 25.4007 59.3376 25.4007 48.2394V32.4032C25.4007 31.8687 25.4159 31.3229 25.4463 30.7669C32.1828 30.2641 38.533 27.9021 43.9523 23.8797C49.3741 27.9008 55.7256 30.2653 62.4595 30.7669C62.4899 31.3229 62.5051 31.87 62.5051 32.4032V37.0841C62.5051 37.9048 63.1713 38.571 63.992 38.571C64.8127 38.571 65.4788 37.9048 65.4788 37.0841V32.4032C65.4788 31.376 65.4269 30.3046 65.3256 29.2179C65.2559 28.4758 64.6468 27.8995 63.9021 27.8717C56.9224 27.607 50.3443 25.1766 44.8756 20.8426C44.3348 20.4133 43.5686 20.4133 43.0278 20.8426C37.5641 25.1766 30.986 27.607 24.0051 27.8717C23.2604 27.8995 22.6512 28.4758 22.5815 29.2179C22.4789 30.3021 22.427 31.3735 22.427 32.4044V48.2406C22.427 54.9467 24.4344 60.6978 28.3935 65.3345C31.8181 69.3442 36.7219 72.6294 43.3849 75.3739C43.566 75.4487 43.7585 75.4866 43.951 75.4866C44.1435 75.4866 44.336 75.4487 44.5172 75.3739L44.5197 75.3714ZM41.3902 63.7678C41.8183 63.0674 41.5992 62.1518 40.8988 61.7237C35.5023 58.4207 32.9896 54.1108 32.9896 48.1608V37.5742C32.9896 37.364 32.9934 37.1512 32.9997 36.9359C36.2204 36.6396 39.2954 35.7188 42.1564 34.1889C42.8808 33.8026 43.1544 32.9009 42.7669 32.1777C42.3806 31.4533 41.4788 31.1797 40.7557 31.5673C37.8997 33.0934 34.8006 33.9293 31.5432 34.0521C30.7985 34.08 30.1893 34.6563 30.1197 35.3984C30.05 36.1355 30.0146 36.8675 30.0146 37.5742V48.1608C30.0146 55.1519 33.0668 60.4179 39.3448 64.2605C39.5867 64.4087 39.8552 64.4796 40.1199 64.4796C40.6202 64.4796 41.109 64.2263 41.3889 63.7691L41.3902 63.7678Z" fill="white"/>
</svg>
