<svg width="390" height="104" viewBox="0 0 390 104" fill="none" xmlns="http://www.w3.org/2000/svg">
<path d="M94.9321 103.834H7.5421C3.6621 103.834 0.502096 100.674 0.502096 96.7941V86.7241C0.502096 82.8441 3.6621 79.6841 7.5421 79.6841H93.6621C95.4421 79.6841 98.2121 78.5341 99.4721 77.2741L105.272 71.4741C107.502 69.2441 111.562 67.5641 114.722 67.5641L410.43 66.1441C411.85 66.1441 413 67.2941 413 68.7141C413 70.1341 411.85 71.2841 410.43 71.2841L114.722 72.7041C112.942 72.7041 110.172 73.8541 108.912 75.1141L103.112 80.9141C100.882 83.1441 96.8221 84.8241 93.6621 84.8241H7.5421C6.4921 84.8241 5.6421 85.6741 5.6421 86.7241V96.7941C5.6421 97.8441 6.4921 98.6941 7.5421 98.6941H94.9321C96.7121 98.6941 99.4821 97.5441 100.752 96.2841L113.752 83.2841C115.732 81.3041 117.952 79.3741 121.412 79.3741L414.02 77.9541C415.44 77.9541 416.59 79.1041 416.59 80.5241C416.59 81.9441 415.44 83.0941 414.02 83.0941L121.402 84.5141C120.022 84.5141 119.042 85.2541 117.382 86.9241L104.382 99.9241C102.152 102.154 98.0921 103.834 94.9321 103.834Z" fill="#F1F1F1"/>
<path d="M10.7921 78.9641C9.6521 78.9641 8.6121 78.1941 8.3121 77.0341L0.582096 47.2041C0.382096 46.4341 0.552096 45.6141 1.0421 44.9841C1.5321 44.3541 2.2821 43.9841 3.0721 43.9841H22.6521C23.9421 43.9841 25.0421 44.9441 25.2021 46.2341L28.0721 68.8941C28.2521 70.3041 27.2521 71.5841 25.8521 71.7641C24.4421 71.9441 23.1621 70.9441 22.9821 69.5441L20.3921 49.1241H6.3921L13.2821 75.7441C13.6421 77.1141 12.8121 78.5141 11.4421 78.8741C11.2221 78.9341 11.0121 78.9541 10.7921 78.9541V78.9641Z" fill="#F1F1F1"/>
<path d="M58.3421 64.0541C56.9221 64.0541 55.7721 62.9041 55.7721 61.4841V49.1341H28.0621C26.6421 49.1341 25.4921 47.9841 25.4921 46.5641C25.4921 45.1441 26.6421 43.9941 28.0621 43.9941H58.3421C59.7621 43.9941 60.9121 45.1441 60.9121 46.5641V61.4841C60.9121 62.9041 59.7621 64.0541 58.3421 64.0541Z" fill="#F1F1F1"/>
<path d="M80.0821 72.7041C79.9721 72.7041 79.8521 72.7041 79.7421 72.6841C78.3321 72.4941 77.3421 71.2041 77.5321 69.8041L80.2721 49.1341H64.6021C63.1821 49.1341 62.0321 47.9841 62.0321 46.5641C62.0321 45.1441 63.1821 43.9941 64.6021 43.9941H83.2021C83.9421 43.9941 84.6421 44.3141 85.1321 44.8741C85.6221 45.4341 85.8421 46.1741 85.7421 46.9041L82.6221 70.4841C82.4521 71.7741 81.3521 72.7141 80.0821 72.7141V72.7041Z" fill="#F1F1F1"/>
<path d="M92.6721 78.9641C92.4021 78.9641 92.1321 78.9241 91.8621 78.8341C90.5121 78.3841 89.7921 76.9241 90.2421 75.5841L99.0921 49.1341H90.3121C88.8921 49.1341 87.7421 47.9841 87.7421 46.5641C87.7421 45.1441 88.8921 43.9941 90.3121 43.9941H102.662C103.492 43.9941 104.262 44.3941 104.742 45.0641C105.222 45.7341 105.352 46.5941 105.092 47.3841L95.1121 77.2241C94.7521 78.2941 93.7521 78.9741 92.6721 78.9741V78.9641Z" fill="#F1F1F1"/>
<path d="M43.2021 76.1441C41.8821 76.1441 40.7521 75.1241 40.6421 73.7841L39.1621 55.6341C39.0421 54.2241 40.1021 52.9841 41.5121 52.8641C42.9221 52.7441 44.1621 53.8041 44.2821 55.2141L45.7621 73.3641C45.8821 74.7741 44.8221 76.0141 43.4121 76.1341C43.3421 76.1341 43.2721 76.1341 43.2021 76.1341V76.1441Z" fill="#F1F1F1"/>
<path d="M95.8021 41.2641C95.0821 41.2641 94.3921 40.9541 93.9021 40.4241C82.9321 28.3541 75.3721 30.5641 61.6521 34.5541C55.6021 36.3141 48.7421 38.3141 40.3121 39.3641C28.3721 40.8441 17.5821 37.8241 10.7021 31.0841C4.4321 24.9441 1.7121 16.0741 2.8121 5.42412C2.9021 4.52412 3.4621 3.74412 4.2821 3.35412C5.1021 2.97412 6.0621 3.05412 6.8121 3.56412C21.5921 13.6441 30.2821 10.4441 42.3021 6.00412C49.5521 3.32412 57.7721 0.294125 68.5321 0.0141247C75.8821 -0.175875 82.7821 1.55412 88.4721 5.01412C93.6521 8.16413 97.6621 12.5641 100.072 17.7541C103.832 25.8641 102.932 34.5441 97.7121 40.4041C97.2321 40.9441 96.5321 41.2641 95.8121 41.2641H95.8021ZM76.9421 26.3041C83.0521 26.3041 89.0121 28.3841 95.5121 34.7041C97.8221 30.5441 97.8321 25.1241 95.4221 19.9241C91.9921 12.5441 83.1721 4.79412 68.6721 5.16412C58.7621 5.42412 51.3021 8.17412 44.0821 10.8341C37.9621 13.0941 32.1821 15.2241 25.7821 15.3541C19.7921 15.4741 13.9721 13.8241 7.7121 10.2141C7.7721 17.3341 10.0121 23.2341 14.2921 27.4241C20.0421 33.0641 29.3021 35.5641 39.6721 34.2741C47.6921 33.2841 54.3421 31.3441 60.2021 29.6341C66.1821 27.8941 71.6121 26.3041 76.9321 26.3041H76.9421Z" fill="#F1F1F1"/>
</svg>
