<svg width="19" height="21" viewBox="0 0 19 21" fill="none" xmlns="http://www.w3.org/2000/svg">
<path d="M2.83276 9.89186C2.94736 10.1178 3.02902 10.364 3.07732 10.625C3.07747 10.6258 3.07761 10.6266 3.07776 10.6274L4.39096 17.9688L4.391 17.969C4.54711 18.8405 5.29294 19.4683 6.16006 19.4989C7.04467 19.5301 7.8251 18.9263 8.02755 18.0741C8.02761 18.0739 8.02767 18.0736 8.02773 18.0733L9.06109 13.7495C9.09982 13.5965 9.23228 13.4988 9.37503 13.4988C9.52065 13.4988 9.64945 13.5988 9.68472 13.7431C9.68479 13.7434 9.68486 13.7437 9.68493 13.744L10.7183 18.0678C10.7185 18.0686 10.7187 18.0695 10.7189 18.0703C10.9223 18.9309 11.7065 19.5263 12.5864 19.4953C13.4535 19.4647 14.1994 18.8369 14.3555 17.9654L14.3555 17.9652L15.6687 10.6238C15.6689 10.623 15.669 10.6222 15.6692 10.6214C15.7175 10.3604 15.7991 10.1142 15.9137 9.88829L15.9161 9.88352L16.7559 8.20548C16.7562 8.20491 16.7565 8.20433 16.7568 8.20376C17.0831 7.55711 17.2465 6.84589 17.2465 6.1304V6.05544C17.2465 3.5369 15.1988 1.5 12.6801 1.5C11.5744 1.5 10.5083 1.90227 9.67668 2.62201L9.67668 2.622L9.67373 2.62457L9.55915 2.72452C9.47241 2.80019 9.40045 2.88927 9.34524 2.98728L8.67461 2.46689C8.65978 2.45399 8.64448 2.44145 8.62873 2.4293C7.85366 1.83139 6.90162 1.50357 5.91961 1.50357C3.4796 1.50357 1.5 3.47265 1.5 5.91265V6.13397C1.5 6.85569 1.66971 7.56031 1.98674 8.20145L1.98673 8.20145L1.98888 8.20575L2.83036 9.88709L2.83035 9.88709L2.83276 9.89186Z" stroke="#FAFAFA" stroke-width="2" stroke-linejoin="round"/>
</svg>
