<svg width="52" height="56" viewBox="0 0 52 56" fill="none" xmlns="http://www.w3.org/2000/svg">
<path d="M42.5328 53.3867C41.6614 53.3867 40.4709 52.9573 39.7528 50.9158C39.3957 49.9 39.1753 48.6323 38.9423 47.2898C38.6003 45.3179 38.0266 42.0187 36.9881 42.0174C35.9546 42.0187 35.3821 45.3191 35.0389 47.2911C34.8059 48.6335 34.5855 49.9013 34.2284 50.917C33.509 52.9599 32.3198 53.3879 31.4484 53.3879C30.5771 53.3879 29.7741 52.9447 29.0383 52.0695C26.9448 49.5796 25.3338 43.2826 26.2748 37.8772C26.2963 37.7367 26.209 37.3998 26.1216 37.287C25.1527 36.0497 22.854 32.6897 22.4652 28.2671C22.1245 24.3967 23.4049 21.1735 25.9797 19.4245C28.3177 17.8363 31.356 17.7122 34.1081 19.0914L34.1651 19.1192C34.4817 19.2788 35.0123 19.5448 35.5848 19.5967C36.4029 19.6702 37.0058 20.3921 36.9323 21.2102C36.8589 22.0284 36.137 22.6312 35.3188 22.5578C34.1828 22.4552 33.2684 21.9967 32.8289 21.7751L32.777 21.7485C31.0001 20.8581 29.0852 20.9075 27.6515 21.8815C25.9949 23.0074 25.1844 25.2389 25.4288 28.0049C25.7568 31.736 27.8364 34.6489 28.4658 35.4532C29.0687 36.2245 29.3726 37.4302 29.2055 38.3864C28.7837 40.8117 28.9458 43.7246 29.6513 46.3792C30.2047 48.4638 30.9038 49.6797 31.3357 50.185C31.6511 49.4365 31.9322 47.8192 32.1121 46.7807C32.3958 45.1469 32.6896 43.4561 33.2494 42.0693C34.2588 39.5718 35.8406 39.0449 36.9893 39.0424C38.1431 39.0449 39.7249 39.5718 40.7343 42.0693C41.2954 43.4561 41.588 45.1456 41.8716 46.7807C42.054 47.8293 42.339 49.472 42.6581 50.2091C43.0862 49.7379 43.7929 48.5601 44.3451 46.5058C45.0531 43.8715 45.2013 40.8864 44.7554 38.3167C44.5908 37.3618 44.891 36.1561 45.4875 35.3848C46.1283 34.5578 48.2408 31.5853 48.5562 28.0037C48.7677 25.5961 48.1889 23.6419 46.9237 22.4982C45.9333 21.6028 44.5959 21.2609 43.1597 21.5357C42.068 21.7447 41.2865 22.4577 40.3823 23.2835C38.7282 24.7944 36.6702 26.6739 32.3552 25.6873C31.5548 25.5036 31.0546 24.707 31.2369 23.9066C31.4206 23.1061 32.2172 22.6059 33.0176 22.7883C35.8153 23.4278 36.8893 22.4463 38.3761 21.0874C39.4577 20.0995 40.6824 18.9799 42.6011 18.6139C44.9404 18.1668 47.2428 18.7786 48.9171 20.2907C50.8891 22.074 51.8136 24.9046 51.5172 28.262C51.1411 32.5314 48.8183 35.937 47.8368 37.2022C47.7494 37.3162 47.6608 37.6619 47.6836 37.8063C48.6651 43.4574 47.0579 49.5897 45.0062 52.0303C44.0652 53.1498 43.1407 53.3841 42.5328 53.3841V53.3867ZM22.5197 55.3713C23.6544 54.9039 24.75 54.4151 25.7783 53.9186C26.518 53.5615 26.827 52.6724 26.4699 51.9327C26.1127 51.1931 25.2236 50.8841 24.484 51.2412C23.6798 51.6301 22.83 52.0138 21.9523 52.3862C9.30004 47.0226 3.40072 39.3375 3.40072 28.2392V12.403C3.40072 11.8686 3.41592 11.3227 3.44632 10.7667C10.1828 10.2639 16.533 7.90193 21.9523 3.87956C27.3741 7.90066 33.7256 10.2652 40.4595 10.7667C40.4899 11.3227 40.5051 11.8698 40.5051 12.403V17.084C40.5051 17.9047 41.1713 18.5708 41.992 18.5708C42.8126 18.5708 43.4788 17.9047 43.4788 17.084V12.403C43.4788 11.3759 43.4269 10.3045 43.3256 9.21782C43.2559 8.47565 42.6467 7.8994 41.902 7.87154C34.9224 7.60684 28.3443 5.17644 22.8755 0.842513C22.3348 0.413173 21.5685 0.413173 21.0277 0.842513C15.5641 5.17644 8.98595 7.60684 2.00505 7.87154C1.26035 7.8994 0.651171 8.47565 0.581514 9.21782C0.478928 10.3019 0.427002 11.3734 0.427002 12.4043V28.2405C0.427002 34.9466 2.43439 40.6977 6.39344 45.3343C9.81803 49.344 14.7219 52.6293 21.3849 55.3738C21.566 55.4485 21.7585 55.4865 21.951 55.4865C22.1435 55.4865 22.336 55.4485 22.5171 55.3738L22.5197 55.3713ZM19.3902 43.7677C19.8182 43.0673 19.5991 42.1516 18.8988 41.7236C13.5023 38.4206 10.9895 34.1107 10.9895 28.1607V17.5741C10.9895 17.3639 10.9933 17.1511 10.9997 16.9358C14.2204 16.6395 17.2954 15.7187 20.1564 14.1888C20.8808 13.8025 21.1544 12.9008 20.7668 12.1776C20.3806 11.4532 19.4788 11.1796 18.7557 11.5672C15.8997 13.0933 12.8006 13.9292 9.5432 14.052C8.79851 14.0799 8.18932 14.6561 8.11967 15.3983C8.05001 16.1354 8.01455 16.8674 8.01455 17.5741V28.1607C8.01455 35.1517 11.0668 40.4178 17.3448 44.2603C17.5867 44.4085 17.8552 44.4795 18.1199 44.4795C18.6201 44.4795 19.109 44.2262 19.3889 43.7689L19.3902 43.7677Z" fill="white"/>
</svg>
